<?xml version="1.0" encoding="UTF-8" standalone="no"?>

<svg
   width="427.68484"
   height="731.55096"
   viewBox="0 0 113.15828 193.55619"
   version="1.1"
   id="svg1"
   xmlns:xlink="http://www.w3.org/1999/xlink"
   xmlns="http://www.w3.org/2000/svg"
   xmlns:svg="http://www.w3.org/2000/svg">
   <defs
      id="defs1">
      <linearGradient
         id="linearGradient143">
         <stop
            style="stop-color:#11db00;stop-opacity:1;"
            offset="0.4951328"
            id="stop142" />
         <stop
            style="stop-color:#fffd23;stop-opacity:1;"
            offset="0.8804841"
            id="stop143" />
      </linearGradient>
      <linearGradient
         id="swatch137">
         <stop
            style="stop-color:#fffd23;stop-opacity:1;"
            offset="0"
            id="stop137" />
      </linearGradient>
      <linearGradient
         id="linearGradient136">
         <stop
            style="stop-color:#11db00;stop-opacity:1;"
            offset="0.58287865"
            id="stop135" />
         <stop
            style="stop-color:#fffd23;stop-opacity:1;"
            offset="1"
            id="stop136" />
      </linearGradient>
      <linearGradient
         id="swatch134">
         <stop
            style="stop-color:#fffd23;stop-opacity:1;"
            offset="0"
            id="stop134" />
      </linearGradient>
      <linearGradient
         id="linearGradient130">
         <stop
            style="stop-color:#11db00;stop-opacity:1;"
            offset="0.27534038"
            id="stop131" />
         <stop
            style="stop-color:#fffd23;stop-opacity:1;"
            offset="0.82096207"
            id="stop132" />
      </linearGradient>
      <linearGradient
         xlink:href="#linearGradient130"
         id="linearGradient133"
         gradientUnits="userSpaceOnUse"
         x1="51.08342"
         y1="130.69127"
         x2="104.63918"
         y2="104.37997" />
      <linearGradient
         xlink:href="#linearGradient136"
         id="linearGradient140"
         gradientUnits="userSpaceOnUse"
         x1="49.266548"
         y1="190.61957"
         x2="102.04016"
         y2="190.61957" />
      <linearGradient
         xlink:href="#linearGradient143"
         id="linearGradient142"
         gradientUnits="userSpaceOnUse"
         x1="42.33112"
         y1="166.81488"
         x2="113.56041"
         y2="140.27893" />
   </defs>
   <g
      id="g82"
      style="display:inline"
      transform="matrix(1.4823591,0,0,1.4823591,-55.655988,-122.83781)">
      <path
         id="path121"
         style="display:inline;fill:url(#linearGradient140);stroke:#000000;stroke-width:0.89244;stroke-linecap:round;stroke-linejoin:round;stroke-dasharray:none;stroke-opacity:1"
         d="m 53.028136,168.24608 a 3.3151924,3.3566387 0 0 0 -3.315369,3.35627 3.3151924,3.3566387 0 0 0 3.315369,3.35679 3.3151924,3.3566387 0 0 0 0.07022,-5.2e-4 v 0.0167 h 13.531517 v -0.002 a 3.3958885,3.3650746 0 0 0 0.243293,0.009 3.3958885,3.3650746 0 0 0 3.396116,-3.36519 3.3958885,3.3650746 0 0 0 -3.396116,-3.36518 3.3958885,3.3650746 0 0 0 -0.243293,0.008 H 53.333251 a 3.3151924,3.3566387 0 0 0 -0.305155,-0.0141 z m 22.632923,0.0466 v 0.009 a 4.0237209,4.1785275 0 0 0 -0.02881,0 4.0237209,4.1785275 0 0 0 -4.023747,4.17843 4.0237209,4.1785275 0 0 0 0.001,0.11113 h -0.0041 v 25.8597 a 4.0290177,4.1673862 0 0 0 -0.001,0.10169 4.0290177,4.1673862 0 0 0 4.028993,4.16742 4.0290177,4.1673862 0 0 0 4.028994,-4.16742 4.0290177,4.1673862 0 0 0 -0.0061,-0.22125 v -23.29203 h 18.329704 a 3.3958885,3.3731441 0 0 0 0.212354,0.007 3.3958885,3.3731441 0 0 0 3.395593,-3.37356 3.3958885,3.3731441 0 0 0 -3.395593,-3.37305 3.3958885,3.3731441 0 0 0 -0.03355,5.2e-4 v -0.008 z m 0.01258,36.36631 a 4.0290177,4.1673862 0 0 0 -4.028993,4.16741 4.0290177,4.1673862 0 0 0 4.028993,4.16689 4.0290177,4.1673862 0 0 0 4.028995,-4.16689 4.0290177,4.1673862 0 0 0 -4.028995,-4.16741 z" />
      <path
         id="path122"
         style="display:inline;opacity:1;fill:url(#linearGradient142);stroke:#000000;stroke-width:0.89244;stroke-linecap:round;stroke-linejoin:round;stroke-dasharray:none;stroke-opacity:1"
         d="m 52.9951,131.8913 a 3.3151924,3.3623447 0 0 0 -3.315371,3.36256 3.3151924,3.3623447 0 0 0 3.315371,3.36204 3.3151924,3.3623447 0 0 0 0.136328,-0.003 h 7.963077 l 4.691226,4.69122 0.0041,-0.005 a 3.3151924,3.3566387 45 0 0 0.06139,0.0629 3.3151924,3.3566387 45 0 0 4.717445,-0.0293 3.3151924,3.3566387 45 0 0 0.02932,-4.71745 3.3151924,3.3566387 45 0 0 -0.06291,-0.0614 l 0.0031,-0.003 -5.453614,-5.45361 a 3.3958885,3.3650745 45 0 0 -0.163592,-0.17565 3.3958885,3.3650745 45 0 0 -1.307692,-0.81691 3.3958885,3.3650745 0 0 0 -1.192863,-0.21394 3.3958885,3.3650745 0 0 0 -0.243293,0.008 v -0.002 h -8.972938 a 3.3151924,3.3623447 0 0 0 -0.208693,-0.007 z m 36.002421,0.0257 a 3.3958885,3.3650745 0 0 0 -1.192336,0.21392 3.3650745,3.3958885 45 0 0 -1.307691,0.81691 3.3650745,3.3958885 45 0 0 -0.16412,0.17566 l -5.453603,5.4536 0.0031,0.003 a 3.3566387,3.3151924 45 0 0 -0.06291,0.0614 3.3566387,3.3151924 45 0 0 0.02881,4.71744 3.3566387,3.3151924 45 0 0 4.717961,0.0293 3.3566387,3.3151924 45 0 0 0.06139,-0.0629 l 0.0041,0.005 4.691226,-4.69122 h 7.817317 a 3.3151924,3.3623447 0 0 0 0.136838,0.003 3.3151924,3.3623447 0 0 0 0.0472,-0.003 h 0.08394 v -0.006 a 3.3151924,3.3623447 0 0 0 3.184297,-3.35364 3.3151924,3.3623447 0 0 0 -3.184297,-3.35367 v -0.002 h -0.03515 a 3.3151924,3.3623447 0 0 0 -0.096,-0.006 3.3151924,3.3623447 0 0 0 -0.20868,0.006 h -8.827701 v 0.002 a 3.3958885,3.3650745 0 0 0 -0.243821,-0.008 z M 75.72346,143.16188 a 4.6827775,4.8435984 0 0 0 -4.682845,4.8438 4.6827775,4.8435984 0 0 0 4.682845,4.84329 4.6827775,4.8435984 0 0 0 4.682835,-4.84329 4.6827775,4.8435984 0 0 0 -4.682835,-4.8438 z m -7.111035,9.01752 a 3.3566387,3.3151924 45 0 0 -2.35269,0.96215 3.3566387,3.3151924 45 0 0 -0.06139,0.0635 l -0.0041,-0.005 -4.690697,4.6907 H 41.612305 a 3.3151924,3.3566387 0 0 0 -0.305165,-0.0142 3.3151924,3.3566387 0 0 0 -3.315373,3.35679 3.3151924,3.3566387 0 0 0 3.111407,3.34316 v 0.007 h 0.101723 a 3.3151924,3.3566387 0 0 0 0.102247,0.007 3.3151924,3.3566387 0 0 0 0.20921,-0.007 h 20.864875 a 3.3958885,3.3650745 0 0 0 0.447785,0.0293 3.3958885,3.3650745 0 0 0 1.192335,-0.21445 3.3650745,3.3958885 45 0 0 1.307693,-0.81692 3.3650745,3.3958885 45 0 0 0.164119,-0.17566 l 5.453604,-5.45361 -0.0031,-0.003 a 3.3566387,3.3151924 45 0 0 0.06291,-0.0614 3.3566387,3.3151924 45 0 0 -0.02932,-4.71796 3.3566387,3.3151924 45 0 0 -2.365272,-0.99152 z m 14.188505,0.11797 a 3.3151924,3.3566387 45 0 0 -2.364754,0.99205 3.3151924,3.3566387 45 0 0 -0.02932,4.71743 3.3151924,3.3566387 45 0 0 0.06291,0.0614 l -0.0031,0.003 5.45203,5.4515 a 3.3958885,3.3650745 45 0 0 0.165693,0.17775 3.3958885,3.3650745 45 0 0 1.307691,0.81692 3.3958885,3.3650745 0 0 0 1.192336,0.21392 3.3958885,3.3650745 0 0 0 0.402695,-0.0237 h 21.053119 a 3.3151924,3.3566387 0 0 0 0.0803,0.001 3.3151924,3.3566387 0 0 0 0.0803,-0.001 h 0.21497 v -0.0121 a 3.3151924,3.3566387 0 0 0 3.02015,-3.34369 3.3151924,3.3566387 0 0 0 -3.02015,-3.33687 v -0.005 h -0.0786 a 3.3151924,3.3566387 0 0 0 -0.21655,-0.0142 3.3151924,3.3566387 0 0 0 -0.30516,0.0142 H 89.910595 l -4.691226,-4.69124 -0.0041,0.005 a 3.3151924,3.3566387 45 0 0 -0.06139,-0.0629 3.3151924,3.3566387 45 0 0 -2.35269,-0.96267 z" />
      <path
         id="path123"
         style="display:inline;opacity:1;fill:url(#linearGradient133);stroke:#000000;stroke-width:0.89244;stroke-linecap:round;stroke-linejoin:round;stroke-dasharray:none;stroke-opacity:1"
         d="m 75.811541,83.3127 a 3.3151924,3.3566387 60 0 0 -1.675775,0.4546 3.3151924,3.3566387 60 0 0 -1.249492,4.549129 3.3151924,3.3566387 60 0 0 4.564861,1.192861 3.3151924,3.3566387 60 0 0 1.249491,-4.549128 3.3151924,3.3566387 60 0 0 -2.889085,-1.647462 z m -0.03044,8.756405 a 3.3566387,3.3151924 0 0 0 -3.316416,2.801513 h -0.03359 v 0.304636 a 3.3566387,3.3151924 0 0 0 -0.0071,0.209215 3.3566387,3.3151924 0 0 0 0.0071,0.209214 V 121.5383 H 56.518584 a 3.3151924,3.3566387 0 0 0 -0.305166,-0.0147 3.3151924,3.3566387 0 0 0 -0.220747,0.0147 h -0.01522 v 10e-4 a 3.3151924,3.3566387 0 0 0 -3.079423,3.34107 3.3151924,3.3566387 0 0 0 3.079423,3.3484 v 0.002 h 0.02669 a 3.3151924,3.3566387 0 0 0 0.209211,0.007 3.3151924,3.3566387 0 0 0 0.208683,-0.007 h 38.526046 a 3.3958885,3.3529701 0 0 0 0.188763,0.005 3.3958885,3.3529701 0 0 0 0.188762,-0.005 h 0.128978 v -0.009 a 3.3958885,3.3529701 0 0 0 3.07786,-3.33844 3.3958885,3.3529701 0 0 0 -3.07786,-3.33792 v -0.006 h -0.07712 a 3.3958885,3.3529701 0 0 0 -0.240676,-0.008 3.3958885,3.3529701 0 0 0 -0.240666,0.008 H 79.123086 V 95.690311 a 3.3566387,3.3151924 0 0 0 0.01411,-0.30516 3.3566387,3.3151924 0 0 0 -0.01411,-0.30516 V 94.8713 h -0.02617 a 3.3566387,3.3151924 0 0 0 -3.315898,-2.801512 z m -8.622693,1.541018 a 3.3566387,3.3151924 30 0 0 -2.437636,1.165061 l -0.04038,-0.02309 -0.193473,0.335041 a 3.3566387,3.3151924 30 0 0 -0.104874,0.169357 3.3566387,3.3151924 30 0 0 -0.09913,0.184054 L 56.724094,108.5332 a 3.3650745,3.3958885 30 0 1 -5.28e-4,5.2e-4 3.3650745,3.3958885 30 0 0 -0.249056,0.37333 3.3650745,3.3958885 30 0 0 1.215937,4.62357 3.3650745,3.3958885 30 0 0 4.380813,-0.90919 l 0.01522,0.009 0.08919,-0.15469 a 3.3650745,3.3958885 30 0 0 0.12741,-0.20343 3.3650745,3.3958885 30 0 0 0.112735,-0.21235 l 7.61492,-13.189657 A 3.3566387,3.3151924 30 0 0 70.1959,98.612849 3.3566387,3.3151924 30 0 0 70.332745,98.347015 L 70.47642,98.09849 70.44283,98.07904 a 3.3566387,3.3151924 30 0 0 -1.496447,-4.015262 3.3566387,3.3151924 30 0 0 -1.787986,-0.453553 z m 17.164637,0 a 3.3151924,3.3566387 60 0 0 -1.787985,0.453542 3.3151924,3.3566387 60 0 0 -1.496447,4.015372 l -0.03359,0.01934 0.143674,0.248536 a 3.3151924,3.3566387 60 0 0 0.136846,0.265823 3.3151924,3.3566387 60 0 0 0.165165,0.257454 l 7.616493,13.19176 a 3.3958885,3.3650745 60 0 0 0.111688,0.21026 3.3958885,3.3650745 60 0 0 0.12742,0.20343 l 0.08919,0.15468 0.01471,-0.008 a 3.3958885,3.3650745 60 0 0 4.380825,0.90867 3.3958885,3.3650745 60 0 0 1.216453,-4.62357 3.3958885,3.3650745 60 0 0 -0.250095,-0.37385 L 87.198565,95.440955 a 3.3151924,3.3566387 60 0 0 -5.18e-4,-5.34e-4 3.3151924,3.3566387 60 0 0 -0.09802,-0.183519 3.3151924,3.3566387 60 0 0 -0.110642,-0.177741 l -0.188227,-0.326658 -0.03988,0.02309 A 3.3151924,3.3566387 60 0 0 84.323124,93.61052 Z" />
   </g>
</svg>